<svg xmlns="http://www.w3.org/2000/svg" viewBox="0 0 353.54 203.43"><defs><style>.a{fill:#fff;}.b{fill:#0071bc;}</style></defs><title>icon.asp-js</title><path class="a" d="M47.16,276.26q-6.42,0-9-2.78c-1.76-1.85-2.63-4.93-2.63-9.24v-8.3q0-6.24-4.46-6.27v-5.94q4.45,0,4.46-6.49V229.5q0-6.58,2.67-9.44t9-2.86v6.06q-4.62,0-4.62,5.93v7.46q0,7.92-4.45,10v.16q4.45,2,4.45,10.1v7.2c0,2.22.36,3.79,1.08,4.72a4.15,4.15,0,0,0,3.54,1.4Z" transform="translate(-30.03 -79.02)"/><path class="a" d="M69.35,233.05a17.57,17.57,0,0,1,5.38-2.12,25.82,25.82,0,0,1,5.76-.8q12.45,0,12.45,14.44v20.76H84.7v-5h-.1q-3,5.85-8.89,5.84A8.66,8.66,0,0,1,69,263.38a10.74,10.74,0,0,1-2.54-7.56q0-9.88,10.17-11.5l8.16-1.27q0-6-5.4-6a15.86,15.86,0,0,0-10,3.73Zm9.8,16.71c-3.13.48-4.7,2.11-4.7,4.91a4.3,4.3,0,0,0,1.14,3.11A4.11,4.11,0,0,0,78.67,259,5.33,5.33,0,0,0,83,256.78a8.42,8.42,0,0,0,1.72-5.4v-2.46Z" transform="translate(-30.03 -79.02)"/><path class="a" d="M99.05,256.1a15.17,15.17,0,0,0,8.72,3.14q5.37,0,5.37-3.33c0-1.57-1.48-2.89-4.43-3.94q-5.53-2-7.6-4.43a9.93,9.93,0,0,1-2.06-6.6,9.67,9.67,0,0,1,3.54-7.94,14.25,14.25,0,0,1,9.28-2.87,22.61,22.61,0,0,1,7.87,1.39v7.9a13.21,13.21,0,0,0-7.62-2.37,5.83,5.83,0,0,0-3.33.86,2.61,2.61,0,0,0-1.26,2.25c0,1.57,1.25,2.85,3.75,3.82a37.46,37.46,0,0,1,6.06,2.83,8.47,8.47,0,0,1,3.08,3.35,10.46,10.46,0,0,1,1.06,4.82,10,10,0,0,1-3.67,8.25q-3.69,2.94-9.83,2.93a22.28,22.28,0,0,1-8.93-1.77Z" transform="translate(-30.03 -79.02)"/><path class="a" d="M135.07,261.19v19.95h-8.66V231h8.66v5.25h.11q3.4-6.08,9.63-6.08a10.19,10.19,0,0,1,8.86,4.58q3.2,4.57,3.19,12.47,0,8.61-3.7,13.8a11.43,11.43,0,0,1-9.71,5.18,9,9,0,0,1-8.27-5Zm-.13-11.06a9.81,9.81,0,0,0,1.72,6,5.3,5.3,0,0,0,4.45,2.33,5.65,5.65,0,0,0,5.06-2.92q1.82-2.92,1.81-8.26,0-9.45-6.36-9.45a5.7,5.7,0,0,0-4.82,2.61,11.3,11.3,0,0,0-1.86,6.71Z" transform="translate(-30.03 -79.02)"/><path class="a" d="M178.51,250.44H162.65v-7.08h15.86Z" transform="translate(-30.03 -79.02)"/><path class="a" d="M194.59,264.64q0,8.17-3.15,12.49t-9.22,4.32a11.33,11.33,0,0,1-4.32-1v-8a6.72,6.72,0,0,0,3.49,1.24q4.56,0,4.56-8.32V231h8.64Zm-9.28-44.77a5.12,5.12,0,0,1,1.41-3.74,5.26,5.26,0,0,1,7.26,0,5.19,5.19,0,0,1,1.39,3.71,5.28,5.28,0,0,1-1.42,3.78,4.78,4.78,0,0,1-3.62,1.5,4.7,4.7,0,0,1-3.6-1.52A5.28,5.28,0,0,1,185.31,219.87Z" transform="translate(-30.03 -79.02)"/><path class="a" d="M201.16,256.1a15.17,15.17,0,0,0,8.72,3.14q5.37,0,5.37-3.33c0-1.57-1.48-2.89-4.43-3.94q-5.53-2-7.6-4.43a9.93,9.93,0,0,1-2.06-6.6A9.67,9.67,0,0,1,204.7,233a14.25,14.25,0,0,1,9.28-2.87,22.61,22.61,0,0,1,7.87,1.39v7.9a13.21,13.21,0,0,0-7.62-2.37,5.83,5.83,0,0,0-3.33.86,2.61,2.61,0,0,0-1.26,2.25c0,1.57,1.25,2.85,3.75,3.82a36.87,36.87,0,0,1,6.05,2.83,8.43,8.43,0,0,1,3.09,3.35,10.46,10.46,0,0,1,1.06,4.82,9.94,9.94,0,0,1-3.68,8.25q-3.67,2.94-9.82,2.93a22.28,22.28,0,0,1-8.93-1.77Z" transform="translate(-30.03 -79.02)"/><path class="a" d="M250.76,264.05c-2.07,1.41-5,2.11-8.85,2.11a13.88,13.88,0,0,1-11-4.78q-4.19-4.78-4.19-12.4,0-8.76,4.51-13.81a15.36,15.36,0,0,1,12-5c3.38,0,5.88.53,7.51,1.61v8.61a9.86,9.86,0,0,0-6.5-2.52,8,8,0,0,0-6.37,2.8,11.38,11.38,0,0,0-2.4,7.67,11.21,11.21,0,0,0,2.28,7.44,7.68,7.68,0,0,0,6.2,2.72,11,11,0,0,0,6.76-2.55Z" transform="translate(-30.03 -79.02)"/><path class="a" d="M275.28,240.07a6.74,6.74,0,0,0-3.84-1.06,5.35,5.35,0,0,0-4.68,2.61A12.81,12.81,0,0,0,265,248.8v16.53h-8.66V231H265v6.47h.11q2.14-7.05,7.81-7.06a5.36,5.36,0,0,1,2.34.41Z" transform="translate(-30.03 -79.02)"/><path class="a" d="M278.51,219.87a5.12,5.12,0,0,1,1.41-3.74,5.26,5.26,0,0,1,7.26,0,5.19,5.19,0,0,1,1.39,3.71,5.28,5.28,0,0,1-1.42,3.78,4.77,4.77,0,0,1-3.62,1.5,4.7,4.7,0,0,1-3.6-1.52A5.28,5.28,0,0,1,278.51,219.87Zm.64,45.46V231h8.64v34.37Z" transform="translate(-30.03 -79.02)"/><path class="a" d="M303.67,261.19v19.95H295V231h8.67v5.25h.11q3.41-6.08,9.63-6.08a10.17,10.17,0,0,1,8.85,4.58q3.19,4.57,3.2,12.47,0,8.61-3.71,13.8a11.4,11.4,0,0,1-9.71,5.18,9,9,0,0,1-8.26-5Zm-.14-11.06a9.88,9.88,0,0,0,1.72,6,5.31,5.31,0,0,0,4.46,2.33,5.64,5.64,0,0,0,5.05-2.92q1.82-2.92,1.82-8.26,0-9.45-6.36-9.45a5.68,5.68,0,0,0-4.82,2.61,11.3,11.3,0,0,0-1.87,6.71Z" transform="translate(-30.03 -79.02)"/><path class="a" d="M348.52,264.92a11.22,11.22,0,0,1-5.93,1.24q-9.43,0-9.44-11.49V238.45h-4.89V231h4.89v-7.54l8.61-2.86V231h6.76v7.49h-6.76v14.48q0,5.51,3.76,5.5a5.53,5.53,0,0,0,3-1Z" transform="translate(-30.03 -79.02)"/><path class="a" d="M383.57,249.67q-4.43.06-4.43,6.37v8q0,6.56-2.57,9.4t-9.07,2.84V270.2a4.25,4.25,0,0,0,3.55-1.38c.73-.92,1.09-2.48,1.09-4.68v-7.45q0-7.89,4.4-9.85v-.12q-4.4-2.06-4.4-10.32v-7.21q0-5.92-4.64-5.93V217.2q6.3,0,9,2.88t2.67,9.3v7.92q0,6.44,4.43,6.43Z" transform="translate(-30.03 -79.02)"/><path class="a" d="M286.28,186l1.88.79A68.61,68.61,0,0,1,305.49,197H314a66.85,66.85,0,0,0-21.65-14.8c.69-17,.31-27.33-4.8-40.76,11.27-4.22,17.11-6.76,22.6-19.37,5.62-10.35-2-26-3-27.89C306.41,92.27,300.87,79,287.3,79c-13.36.16-26.82,20.64-31.29,28.13-5.17-2.5-17.06-8.08-23.59-9.54a147.68,147.68,0,0,0-32.06-3.26c-25.89,0-55,5.62-74.86,14.41a112.57,112.57,0,0,1-7.35-8.81c-5.36-6.87-10.89-14-18.14-17.29C94.22,80,87.88,79.29,82.79,80.83c-5.94,1.79-9.89,6.8-11.72,9.63-7.94,12.3-6.64,22.59-4.15,29.05,3.75,9.74,12.93,17.68,24.86,21.65-4.68,16.89-3.26,29.55-1,41.89A165.75,165.75,0,0,0,78.52,197H86q4.51-5.4,10-10.92l1.09-1.1-.29-1.51c-2.49-13.23-4.11-25.64,1.39-43.41l.9-2.91-2.93-.79c-11.52-3.1-20.42-10.18-23.79-19C69.52,110,70.77,101.74,76,93.64c2.37-3.67,5.46-6.29,8.48-7.2a14.25,14.25,0,0,1,4.07-.56,22.11,22.11,0,0,1,9,2.1c6,2.74,11,9.26,16,15.57a95.76,95.76,0,0,0,9.35,10.85l1.44,1.35,1.79-.84c19.18-8.93,48.33-14.7,74.25-14.7a141.53,141.53,0,0,1,30.78,3.12c7.61,1.7,24.54,10.19,24.72,10.28l2.51,1.26,1.37-2.46C264,104.79,277.16,85,287.53,84.88c9.91,0,14,11,14.16,11.46l.17.39c2.1,4,6.74,15.82,3,22.77-4.8,11-8.77,12.48-20.57,16.9l-4.46,1.67,1.16,2.8c6,14.37,6.23,24.17,5.4,43.09Z" transform="translate(-30.03 -79.02)"/><path class="b" d="M46.16,277.26q-6.42,0-9-2.78c-1.76-1.85-2.63-4.93-2.63-9.24v-8.3q0-6.24-4.46-6.27v-5.94q4.45,0,4.46-6.49V230.5q0-6.58,2.67-9.44t9-2.86v6.06q-4.62,0-4.62,5.93v7.46q0,7.92-4.45,10v.16q4.45,2,4.45,10.1v7.2c0,2.22.36,3.79,1.08,4.72a4.15,4.15,0,0,0,3.54,1.4Z" transform="translate(-30.03 -79.02)"/><path class="b" d="M68.35,234.05a17.57,17.57,0,0,1,5.38-2.12,25.82,25.82,0,0,1,5.76-.8q12.45,0,12.45,14.44v20.76H83.7v-5h-.1q-3,5.85-8.89,5.84A8.66,8.66,0,0,1,68,264.38a10.74,10.74,0,0,1-2.54-7.56q0-9.88,10.17-11.5l8.16-1.27q0-6-5.4-6a15.86,15.86,0,0,0-10,3.73Zm9.8,16.71c-3.13.48-4.7,2.11-4.7,4.91a4.3,4.3,0,0,0,1.14,3.11A4.11,4.11,0,0,0,77.67,260,5.33,5.33,0,0,0,82,257.78a8.42,8.42,0,0,0,1.72-5.4v-2.46Z" transform="translate(-30.03 -79.02)"/><path class="b" d="M98.05,257.1a15.17,15.17,0,0,0,8.72,3.14q5.37,0,5.37-3.33c0-1.57-1.48-2.89-4.43-3.94q-5.53-2-7.6-4.43a9.93,9.93,0,0,1-2.06-6.6,9.67,9.67,0,0,1,3.54-7.94,14.25,14.25,0,0,1,9.28-2.87,22.61,22.61,0,0,1,7.87,1.39v7.9a13.21,13.21,0,0,0-7.62-2.37,5.83,5.83,0,0,0-3.33.86,2.61,2.61,0,0,0-1.26,2.25c0,1.57,1.25,2.85,3.75,3.82a37.46,37.46,0,0,1,6.06,2.83,8.47,8.47,0,0,1,3.08,3.35,10.46,10.46,0,0,1,1.06,4.82,10,10,0,0,1-3.67,8.25q-3.69,2.94-9.83,2.93a22.28,22.28,0,0,1-8.93-1.77Z" transform="translate(-30.03 -79.02)"/><path class="b" d="M134.07,262.19v19.95h-8.66V232h8.66v5.25h.11q3.4-6.08,9.63-6.08a10.19,10.19,0,0,1,8.86,4.58q3.2,4.57,3.19,12.47,0,8.61-3.7,13.8a11.43,11.43,0,0,1-9.71,5.18,9,9,0,0,1-8.27-5Zm-.13-11.06a9.81,9.81,0,0,0,1.72,6,5.3,5.3,0,0,0,4.45,2.33,5.65,5.65,0,0,0,5.06-2.92q1.82-2.93,1.81-8.26,0-9.45-6.36-9.45a5.7,5.7,0,0,0-4.82,2.61,11.3,11.3,0,0,0-1.86,6.71Z" transform="translate(-30.03 -79.02)"/><path class="b" d="M177.51,251.44H161.65v-7.08h15.86Z" transform="translate(-30.03 -79.02)"/><path class="b" d="M193.59,265.64q0,8.17-3.15,12.49t-9.22,4.32a11.33,11.33,0,0,1-4.32-1v-8a6.72,6.72,0,0,0,3.49,1.24q4.56,0,4.56-8.32V232h8.64Zm-9.28-44.77a5.12,5.12,0,0,1,1.41-3.74,5.26,5.26,0,0,1,7.26,0,5.19,5.19,0,0,1,1.39,3.71,5.28,5.28,0,0,1-1.42,3.78,4.78,4.78,0,0,1-3.62,1.5,4.7,4.7,0,0,1-3.6-1.52A5.28,5.28,0,0,1,184.31,220.87Z" transform="translate(-30.03 -79.02)"/><path class="b" d="M200.16,257.1a15.17,15.17,0,0,0,8.72,3.14q5.37,0,5.37-3.33c0-1.57-1.48-2.89-4.43-3.94q-5.53-2-7.6-4.43a9.93,9.93,0,0,1-2.06-6.6A9.67,9.67,0,0,1,203.7,234a14.25,14.25,0,0,1,9.28-2.87,22.61,22.61,0,0,1,7.87,1.39v7.9a13.21,13.21,0,0,0-7.62-2.37,5.83,5.83,0,0,0-3.33.86,2.61,2.61,0,0,0-1.26,2.25c0,1.57,1.25,2.85,3.75,3.82a36.87,36.87,0,0,1,6.05,2.83,8.43,8.43,0,0,1,3.09,3.35,10.46,10.46,0,0,1,1.06,4.82,9.94,9.94,0,0,1-3.68,8.25q-3.67,2.94-9.82,2.93a22.28,22.28,0,0,1-8.93-1.77Z" transform="translate(-30.03 -79.02)"/><path class="b" d="M249.76,265.05c-2.07,1.41-5,2.11-8.85,2.11a13.88,13.88,0,0,1-11-4.78q-4.19-4.78-4.19-12.4,0-8.76,4.51-13.81a15.36,15.36,0,0,1,12-5c3.38,0,5.88.53,7.51,1.61v8.61a9.86,9.86,0,0,0-6.5-2.52,8,8,0,0,0-6.37,2.8,11.38,11.38,0,0,0-2.4,7.67,11.21,11.21,0,0,0,2.28,7.44,7.68,7.68,0,0,0,6.2,2.72,11,11,0,0,0,6.76-2.55Z" transform="translate(-30.03 -79.02)"/><path class="b" d="M274.28,241.07a6.74,6.74,0,0,0-3.84-1.06,5.35,5.35,0,0,0-4.68,2.61A12.81,12.81,0,0,0,264,249.8v16.53h-8.66V232H264v6.47h.11q2.14-7.05,7.81-7.06a5.36,5.36,0,0,1,2.34.41Z" transform="translate(-30.03 -79.02)"/><path class="b" d="M277.51,220.87a5.12,5.12,0,0,1,1.41-3.74,5.26,5.26,0,0,1,7.26,0,5.19,5.19,0,0,1,1.39,3.71,5.28,5.28,0,0,1-1.42,3.78,4.77,4.77,0,0,1-3.62,1.5,4.7,4.7,0,0,1-3.6-1.52A5.28,5.28,0,0,1,277.51,220.87Zm.64,45.46V232h8.64v34.37Z" transform="translate(-30.03 -79.02)"/><path class="b" d="M302.67,262.19v19.95H294V232h8.67v5.25h.11q3.41-6.08,9.63-6.08a10.17,10.17,0,0,1,8.85,4.58q3.19,4.57,3.2,12.47,0,8.61-3.71,13.8a11.4,11.4,0,0,1-9.71,5.18,9,9,0,0,1-8.26-5Zm-.14-11.06a9.88,9.88,0,0,0,1.72,6,5.31,5.31,0,0,0,4.46,2.33,5.64,5.64,0,0,0,5.05-2.92q1.82-2.93,1.82-8.26,0-9.45-6.36-9.45a5.68,5.68,0,0,0-4.82,2.61,11.3,11.3,0,0,0-1.87,6.71Z" transform="translate(-30.03 -79.02)"/><path class="b" d="M347.52,265.92a11.22,11.22,0,0,1-5.93,1.24q-9.43,0-9.44-11.49V239.45h-4.89V232h4.89v-7.54l8.61-2.86V232h6.76v7.49h-6.76v14.48q0,5.51,3.76,5.5a5.53,5.53,0,0,0,3-1Z" transform="translate(-30.03 -79.02)"/><path class="b" d="M382.57,250.67q-4.43.06-4.43,6.37v8q0,6.56-2.57,9.4t-9.07,2.84V271.2a4.25,4.25,0,0,0,3.55-1.38c.73-.92,1.09-2.48,1.09-4.68v-7.45q0-7.89,4.4-9.85v-.12q-4.4-2.06-4.4-10.32v-7.21q0-5.92-4.64-5.93V218.2q6.3,0,9,2.88t2.67,9.3v7.92q0,6.44,4.43,6.43Z" transform="translate(-30.03 -79.02)"/><path class="b" d="M285.28,187l1.88.79A68.61,68.61,0,0,1,304.49,198H313a66.85,66.85,0,0,0-21.65-14.8c.69-17,.31-27.33-4.8-40.76,11.27-4.22,17.11-6.76,22.6-19.37,5.62-10.35-2-26-3-27.89C305.41,93.27,299.87,80,286.3,80c-13.36.16-26.82,20.64-31.29,28.13-5.17-2.5-17.06-8.08-23.59-9.54a147.68,147.68,0,0,0-32.06-3.26c-25.89,0-55,5.62-74.86,14.41a112.57,112.57,0,0,1-7.35-8.81C111.79,94.08,106.26,87,99,83.66,93.22,81,86.88,80.29,81.79,81.83c-5.94,1.79-9.89,6.8-11.72,9.63-7.94,12.3-6.64,22.59-4.15,29.05,3.75,9.74,12.93,17.68,24.86,21.65-4.68,16.89-3.26,29.55-1,41.89A165.75,165.75,0,0,0,77.52,198H85q4.51-5.4,10-10.92l1.09-1.1-.29-1.51c-2.49-13.23-4.11-25.64,1.39-43.41l.9-2.91-2.93-.79c-11.52-3.1-20.42-10.18-23.79-19C68.52,111,69.77,102.74,75,94.64c2.37-3.67,5.46-6.29,8.48-7.2a14.25,14.25,0,0,1,4.07-.56,22.11,22.11,0,0,1,9,2.1c6,2.74,11,9.26,16,15.57a95.76,95.76,0,0,0,9.35,10.85l1.44,1.35,1.79-.84c19.18-8.93,48.33-14.7,74.25-14.7a141.53,141.53,0,0,1,30.78,3.12c7.61,1.7,24.54,10.19,24.72,10.28l2.51,1.26,1.37-2.46C263,105.79,276.16,86,286.53,85.88c9.91,0,14,11,14.16,11.46l.17.39c2.1,4,6.74,15.82,3,22.77-4.8,11-8.77,12.48-20.57,16.9l-4.46,1.67,1.16,2.8c6,14.37,6.23,24.17,5.4,43.09Z" transform="translate(-30.03 -79.02)"/></svg>