<svg xmlns="http://www.w3.org/2000/svg" viewBox="0 0 312.16 208.87"><defs><style>.a{fill:#fff;}.b{fill:#0071bc;}</style></defs><title>icon.mf-tools</title><path class="a" d="M286.28,186l1.88.79A68.61,68.61,0,0,1,305.49,197H314a66.85,66.85,0,0,0-21.65-14.8c.69-17,.31-27.33-4.8-40.76,11.27-4.22,17.11-6.76,22.6-19.37,5.62-10.35-2-26-3-27.89C306.41,92.27,300.87,79,287.3,79c-13.36.16-26.82,20.64-31.29,28.13-5.17-2.5-17.06-8.08-23.59-9.54a147.68,147.68,0,0,0-32.06-3.26c-25.89,0-55,5.62-74.86,14.41a112.57,112.57,0,0,1-7.35-8.81c-5.36-6.87-10.89-14-18.14-17.29C94.22,80,87.88,79.29,82.79,80.83c-5.94,1.79-9.89,6.8-11.72,9.63-7.94,12.3-6.64,22.59-4.15,29.05,3.75,9.74,12.93,17.68,24.86,21.65-4.68,16.89-3.26,29.55-1,41.89A165.75,165.75,0,0,0,78.52,197H86q4.51-5.4,10-10.92l1.09-1.1-.29-1.51c-2.49-13.23-4.11-25.64,1.39-43.41l.9-2.91-2.93-.79c-11.52-3.1-20.42-10.18-23.79-19C69.52,110,70.77,101.74,76,93.64c2.37-3.67,5.46-6.29,8.48-7.2a14.25,14.25,0,0,1,4.07-.56,22.11,22.11,0,0,1,9,2.1c6,2.74,11,9.26,16,15.57a95.76,95.76,0,0,0,9.35,10.85l1.44,1.35,1.79-.84c19.18-8.93,48.33-14.7,74.25-14.7a141.53,141.53,0,0,1,30.78,3.12c7.61,1.7,24.54,10.19,24.72,10.28l2.51,1.26,1.37-2.46C264,104.79,277.16,85,287.53,84.88c9.91,0,14,11,14.16,11.46l.17.39c2.1,4,6.74,15.82,3,22.77-4.8,11-8.77,12.48-20.57,16.9l-4.46,1.67,1.16,2.8c6,14.37,6.23,24.17,5.4,43.09Z" transform="translate(-39.52 -79.02)"/><path class="a" d="M50.76,286.89A49,49,0,0,1,40.52,256q0-18,10.3-30.73h7.46a51.29,51.29,0,0,0-10,30.66,52.43,52.43,0,0,0,9.94,30.92Z" transform="translate(-39.52 -79.02)"/><path class="a" d="M130.33,275.59h-9V255.1q0-8.25-5.19-8.25a4.67,4.67,0,0,0-4,2.5,11.08,11.08,0,0,0-1.6,6.11v20.13h-9V254.84q0-8-5.14-8a4.64,4.64,0,0,0-4.08,2.39,11.53,11.53,0,0,0-1.53,6.31v20H81.65V239.67h9.06v5.62h.12a12.26,12.26,0,0,1,4.32-4.79,10.38,10.38,0,0,1,5.66-1.71q6.54,0,9,6.79c2.4-4.52,5.87-6.79,10.44-6.79q10.12,0,10.13,14.49Z" transform="translate(-39.52 -79.02)"/><path class="a" d="M157.19,230.51a8.55,8.55,0,0,0-3.51-.84c-3.1,0-4.66,2-4.66,6v4h7.07v7.83H149v28.09H140V247.5h-5.19v-7.83H140v-4.61q0-6.13,3.45-9.81a11.85,11.85,0,0,1,9.06-3.67,14,14,0,0,1,4.72.68Z" transform="translate(-39.52 -79.02)"/><path class="a" d="M195,275.17c-1.36.87-3.43,1.3-6.19,1.3q-9.88,0-9.88-12V247.5h-5.11v-7.83h5.11v-7.89l9-3v10.88H195v7.83h-7.06v15.13c0,3.84,1.3,5.75,3.92,5.75a5.77,5.77,0,0,0,3.14-1Z" transform="translate(-39.52 -79.02)"/><path class="a" d="M197.85,257.79q0-8.87,4.59-13.93t12.33-5.07q7.48,0,11.89,5t4.41,13.4q0,8.83-4.52,14.06t-12.23,5.23q-7.57,0-12-5T197.85,257.79Zm9.18-.13q0,10.75,7.57,10.75,7.26,0,7.27-11,0-10.51-7.33-10.52a6.39,6.39,0,0,0-5.54,2.82Q207,252.51,207,257.66Z" transform="translate(-39.52 -79.02)"/><path class="a" d="M235,257.79q0-8.87,4.59-13.93T252,238.79q7.48,0,11.89,5t4.4,13.4q0,8.83-4.51,14.06t-12.23,5.23q-7.57,0-12-5T235,257.79Zm9.17-.13q0,10.75,7.58,10.75,7.26,0,7.26-11,0-10.51-7.32-10.52a6.39,6.39,0,0,0-5.54,2.82Q244.21,252.51,244.21,257.66Z" transform="translate(-39.52 -79.02)"/><path class="a" d="M273.94,275.59V222.42h9v53.17Z" transform="translate(-39.52 -79.02)"/><path class="a" d="M289.69,266a15.88,15.88,0,0,0,9.12,3.28q5.61,0,5.61-3.48c0-1.64-1.54-3-4.63-4.12q-5.78-2.08-7.94-4.63a10.33,10.33,0,0,1-2.16-6.9,10.09,10.09,0,0,1,3.7-8.3,15,15,0,0,1,9.71-3,23.43,23.43,0,0,1,8.22,1.47v8.24a13.87,13.87,0,0,0-8-2.46,6.07,6.07,0,0,0-3.48.89,2.73,2.73,0,0,0-1.32,2.35q0,2.47,3.93,4a38.88,38.88,0,0,1,6.33,3,8.83,8.83,0,0,1,3.22,3.51,10.94,10.94,0,0,1,1.11,5,10.41,10.41,0,0,1-3.84,8.62q-3.84,3.08-10.27,3.07a23.42,23.42,0,0,1-9.34-1.85Z" transform="translate(-39.52 -79.02)"/><path class="a" d="M341.39,286.89h-7.46a51,51,0,0,0,10-30.66A52.65,52.65,0,0,0,334,225.31h7.46q10.24,13.16,10.24,30.92Q351.69,274.29,341.39,286.89Z" transform="translate(-39.52 -79.02)"/><path class="b" d="M285.28,187l1.88.79A68.61,68.61,0,0,1,304.49,198H313a66.85,66.85,0,0,0-21.65-14.8c.69-17,.31-27.33-4.8-40.76,11.27-4.22,17.11-6.76,22.6-19.37,5.62-10.35-2-26-3-27.89C305.41,93.27,299.87,80,286.3,80c-13.36.16-26.82,20.64-31.29,28.13-5.17-2.5-17.06-8.08-23.59-9.54a147.68,147.68,0,0,0-32.06-3.26c-25.89,0-55,5.62-74.86,14.41a112.57,112.57,0,0,1-7.35-8.81C111.79,94.08,106.26,87,99,83.66,93.22,81,86.88,80.29,81.79,81.83c-5.94,1.79-9.89,6.8-11.72,9.63-7.94,12.3-6.64,22.59-4.15,29.05,3.75,9.74,12.93,17.68,24.86,21.65-4.68,16.89-3.26,29.55-1,41.89A165.75,165.75,0,0,0,77.52,198H85q4.51-5.4,10-10.92l1.09-1.1-.29-1.51c-2.49-13.23-4.11-25.64,1.39-43.41l.9-2.91-2.93-.79c-11.52-3.1-20.42-10.18-23.79-19C68.52,111,69.77,102.74,75,94.64c2.37-3.67,5.46-6.29,8.48-7.2a14.25,14.25,0,0,1,4.07-.56,22.11,22.11,0,0,1,9,2.1c6,2.74,11,9.26,16,15.57a95.76,95.76,0,0,0,9.35,10.85l1.44,1.35,1.79-.84c19.18-8.93,48.33-14.7,74.25-14.7a141.53,141.53,0,0,1,30.78,3.12c7.61,1.7,24.54,10.19,24.72,10.28l2.51,1.26,1.37-2.46C263,105.79,276.16,86,286.53,85.88c9.91,0,14,11,14.16,11.46l.17.39c2.1,4,6.74,15.82,3,22.77-4.8,11-8.77,12.48-20.57,16.9l-4.46,1.67,1.16,2.8c6,14.37,6.23,24.17,5.4,43.09Z" transform="translate(-39.52 -79.02)"/><path class="b" d="M49.76,287.89A49,49,0,0,1,39.52,257q0-18,10.3-30.73h7.46a51.29,51.29,0,0,0-10,30.66,52.43,52.43,0,0,0,9.94,30.92Z" transform="translate(-39.52 -79.02)"/><path class="b" d="M129.33,276.59h-9V256.1q0-8.25-5.19-8.25a4.67,4.67,0,0,0-4,2.5,11.08,11.08,0,0,0-1.6,6.11v20.13h-9V255.84q0-8-5.14-8a4.64,4.64,0,0,0-4.08,2.39,11.53,11.53,0,0,0-1.53,6.31v20H80.65V240.67h9.06v5.62h.12a12.26,12.26,0,0,1,4.32-4.79,10.38,10.38,0,0,1,5.66-1.71q6.54,0,9,6.79c2.4-4.52,5.87-6.79,10.44-6.79q10.12,0,10.13,14.49Z" transform="translate(-39.52 -79.02)"/><path class="b" d="M156.19,231.51a8.55,8.55,0,0,0-3.51-.84c-3.1,0-4.66,2-4.66,6v4h7.07v7.83H148v28.09H139V248.5h-5.19v-7.83H139v-4.61q0-6.13,3.45-9.81a11.85,11.85,0,0,1,9.06-3.67,14,14,0,0,1,4.72.68Z" transform="translate(-39.52 -79.02)"/><path class="b" d="M194,276.17c-1.36.87-3.43,1.3-6.19,1.3q-9.88,0-9.88-12V248.5h-5.11v-7.83h5.11v-7.89l9-3v10.88H194v7.83h-7.06v15.13c0,3.84,1.3,5.75,3.92,5.75a5.77,5.77,0,0,0,3.14-1Z" transform="translate(-39.52 -79.02)"/><path class="b" d="M196.85,258.79q0-8.87,4.59-13.93t12.33-5.07q7.48,0,11.89,5t4.41,13.4q0,8.83-4.52,14.06t-12.23,5.23q-7.57,0-12-5T196.85,258.79Zm9.18-.13q0,10.75,7.57,10.75,7.26,0,7.27-11,0-10.51-7.33-10.52a6.39,6.39,0,0,0-5.54,2.82Q206,253.51,206,258.66Z" transform="translate(-39.52 -79.02)"/><path class="b" d="M234,258.79q0-8.87,4.59-13.93T251,239.79q7.48,0,11.89,5t4.4,13.4q0,8.83-4.51,14.06t-12.23,5.23q-7.57,0-12-5T234,258.79Zm9.17-.13q0,10.75,7.58,10.75,7.26,0,7.26-11,0-10.51-7.32-10.52a6.39,6.39,0,0,0-5.54,2.82Q243.21,253.51,243.21,258.66Z" transform="translate(-39.52 -79.02)"/><path class="b" d="M272.94,276.59V223.42h9v53.17Z" transform="translate(-39.52 -79.02)"/><path class="b" d="M288.69,267a15.88,15.88,0,0,0,9.12,3.28q5.61,0,5.61-3.48c0-1.64-1.54-3-4.63-4.12q-5.78-2.08-7.94-4.63a10.33,10.33,0,0,1-2.16-6.9,10.09,10.09,0,0,1,3.7-8.3,15,15,0,0,1,9.71-3,23.43,23.43,0,0,1,8.22,1.47v8.24a13.87,13.87,0,0,0-8-2.46,6.07,6.07,0,0,0-3.48.89,2.73,2.73,0,0,0-1.32,2.35q0,2.47,3.93,4a38.88,38.88,0,0,1,6.33,3,8.83,8.83,0,0,1,3.22,3.51,10.94,10.94,0,0,1,1.11,5,10.41,10.41,0,0,1-3.84,8.62q-3.84,3.08-10.27,3.07a23.42,23.42,0,0,1-9.34-1.85Z" transform="translate(-39.52 -79.02)"/><path class="b" d="M340.39,287.89h-7.46a51,51,0,0,0,10-30.66A52.65,52.65,0,0,0,333,226.31h7.46q10.24,13.16,10.24,30.92Q350.69,275.29,340.39,287.89Z" transform="translate(-39.52 -79.02)"/></svg>