<svg xmlns="http://www.w3.org/2000/svg" viewBox="0 0 378.33 201.98"><defs><style>.a{fill:#fff;}.b{fill:#0071bc;}</style></defs><title>icon.asp-vbs</title><path class="a" d="M38.89,264.14,15.5,251.64v-4.4L38.89,234v6.67L22.12,249.3v.17l16.77,8Z" transform="translate(-14.5 -79.02)"/><path class="a" d="M62.83,238a15.44,15.44,0,0,1,4.7-1.84,22,22,0,0,1,5-.7q10.86,0,10.87,12.6V266.2H76.23v-4.37h-.1q-2.64,5.1-7.75,5.1a7.59,7.59,0,0,1-5.89-2.43,9.41,9.41,0,0,1-2.21-6.6q0-8.62,8.87-10l7.12-1.11q0-5.23-4.7-5.24a13.8,13.8,0,0,0-8.74,3.26Zm8.55,14.59q-4.09.63-4.1,4.29a3.75,3.75,0,0,0,1,2.71,3.56,3.56,0,0,0,2.69,1,4.64,4.64,0,0,0,3.81-1.9,7.37,7.37,0,0,0,1.5-4.72v-2.14Z" transform="translate(-14.5 -79.02)"/><path class="a" d="M88.75,258.14a13.21,13.21,0,0,0,7.61,2.74c3.12,0,4.68-1,4.68-2.9q0-2.06-3.86-3.44-4.83-1.74-6.63-3.87a8.64,8.64,0,0,1-1.8-5.76A8.46,8.46,0,0,1,91.84,238a12.46,12.46,0,0,1,8.1-2.5,19.49,19.49,0,0,1,6.86,1.22v6.88a11.57,11.57,0,0,0-6.65-2.06,5.05,5.05,0,0,0-2.9.75,2.26,2.26,0,0,0-1.1,2q0,2.07,3.28,3.34a32.07,32.07,0,0,1,5.28,2.47A7.33,7.33,0,0,1,107.4,253a9.16,9.16,0,0,1,.93,4.21,8.69,8.69,0,0,1-3.21,7.2,13.35,13.35,0,0,1-8.58,2.56,19.42,19.42,0,0,1-7.79-1.55Z" transform="translate(-14.5 -79.02)"/><path class="a" d="M120.19,262.59V280h-7.57V236.21h7.57v4.58h.09q3-5.31,8.41-5.31a8.91,8.91,0,0,1,7.73,4q2.79,4,2.79,10.88,0,7.51-3.24,12a10,10,0,0,1-8.47,4.53,7.86,7.86,0,0,1-7.22-4.34Zm-.12-9.65a8.58,8.58,0,0,0,1.5,5.23,4.63,4.63,0,0,0,3.89,2,4.93,4.93,0,0,0,4.41-2.55,13.69,13.69,0,0,0,1.58-7.22q0-8.24-5.55-8.24a5,5,0,0,0-4.2,2.28,9.8,9.8,0,0,0-1.63,5.85Z" transform="translate(-14.5 -79.02)"/><path class="a" d="M158.1,253.21H144.25V247H158.1Z" transform="translate(-14.5 -79.02)"/><path class="a" d="M188.74,236.21l-9.72,30h-8.54l-9.26-30h8.11l4.75,18.87a26.61,26.61,0,0,1,.87,5.18h.12a31.21,31.21,0,0,1,.91-5l4.85-19Z" transform="translate(-14.5 -79.02)"/><path class="a" d="M199.32,262.59v3.61h-7.57V221.81h7.57v19h.09q3-5.31,8.48-5.31a8.87,8.87,0,0,1,7.67,4q2.77,4,2.78,10.93,0,7.45-3.19,12a9.84,9.84,0,0,1-8.45,4.56,7.91,7.91,0,0,1-7.29-4.34Zm-.12-9.35a8,8,0,0,0,1.52,5,4.68,4.68,0,0,0,3.87,2,4.93,4.93,0,0,0,4.41-2.55,13.69,13.69,0,0,0,1.58-7.22,11,11,0,0,0-1.44-6.06A4.64,4.64,0,0,0,205,242.2a5,5,0,0,0-4.18,2.2A9.12,9.12,0,0,0,199.2,250Z" transform="translate(-14.5 -79.02)"/><path class="a" d="M222.54,258.14a13.21,13.21,0,0,0,7.61,2.74c3.13,0,4.69-1,4.69-2.9q0-2.06-3.87-3.44-4.82-1.74-6.63-3.87a8.64,8.64,0,0,1-1.8-5.76,8.46,8.46,0,0,1,3.09-6.93,12.47,12.47,0,0,1,8.11-2.5,19.49,19.49,0,0,1,6.86,1.22v6.88a11.59,11.59,0,0,0-6.65-2.06,5.08,5.08,0,0,0-2.91.75,2.28,2.28,0,0,0-1.1,2q0,2.07,3.28,3.34A32.07,32.07,0,0,1,238.5,250a7.36,7.36,0,0,1,2.7,2.92,9.28,9.28,0,0,1,.92,4.21,8.69,8.69,0,0,1-3.21,7.2,13.32,13.32,0,0,1-8.57,2.56,19.5,19.5,0,0,1-7.8-1.55Z" transform="translate(-14.5 -79.02)"/><path class="a" d="M265.83,265.09c-1.81,1.22-4.38,1.84-7.72,1.84a12.1,12.1,0,0,1-9.58-4.18,15.81,15.81,0,0,1-3.66-10.82q0-7.63,3.94-12.05a13.35,13.35,0,0,1,10.49-4.4q4.43,0,6.56,1.41v7.51a8.57,8.57,0,0,0-5.67-2.2,6.94,6.94,0,0,0-5.56,2.44,9.94,9.94,0,0,0-2.1,6.7,9.81,9.81,0,0,0,2,6.49,6.71,6.71,0,0,0,5.41,2.38,9.58,9.58,0,0,0,5.9-2.23Z" transform="translate(-14.5 -79.02)"/><path class="a" d="M287.23,244.15a5.94,5.94,0,0,0-3.35-.92,4.68,4.68,0,0,0-4.09,2.28,11.3,11.3,0,0,0-1.51,6.26V266.2h-7.56v-30h7.56v5.64h.1q1.88-6.16,6.81-6.16a4.6,4.6,0,0,1,2,.36Z" transform="translate(-14.5 -79.02)"/><path class="a" d="M290.05,226.53a4.48,4.48,0,0,1,1.23-3.27,4.58,4.58,0,0,1,6.34,0,4.93,4.93,0,0,1,0,6.53,4.41,4.41,0,0,1-6.3,0A4.66,4.66,0,0,1,290.05,226.53Zm.57,39.67v-30h7.54v30Z" transform="translate(-14.5 -79.02)"/><path class="a" d="M312,262.59V280h-7.56V236.21H312v4.58h.09q3-5.31,8.41-5.31a8.89,8.89,0,0,1,7.73,4q2.79,4,2.79,10.88,0,7.51-3.23,12a10,10,0,0,1-8.48,4.53,7.86,7.86,0,0,1-7.22-4.34Zm-.12-9.65a8.58,8.58,0,0,0,1.5,5.23,4.63,4.63,0,0,0,3.89,2,5,5,0,0,0,4.42-2.55,13.79,13.79,0,0,0,1.58-7.22q0-8.24-5.55-8.24a5,5,0,0,0-4.21,2.28,9.87,9.87,0,0,0-1.63,5.85Z" transform="translate(-14.5 -79.02)"/><path class="a" d="M351.16,265.84a9.77,9.77,0,0,1-5.18,1.09q-8.24,0-8.24-10V242.74h-4.26v-6.53h4.26v-6.59l7.52-2.5v9.09h5.9v6.53h-5.9v12.64q0,4.8,3.28,4.8a4.89,4.89,0,0,0,2.62-.87Z" transform="translate(-14.5 -79.02)"/><path class="a" d="M392.83,251.31l-23.4,12.5v-6.64l16.82-8v-.14l-16.82-8.62v-6.67l23.4,13.15Z" transform="translate(-14.5 -79.02)"/><path class="a" d="M286.28,186l1.88.79A68.61,68.61,0,0,1,305.49,197H314a66.85,66.85,0,0,0-21.65-14.8c.69-17,.31-27.33-4.8-40.76,11.27-4.22,17.11-6.76,22.6-19.37,5.62-10.35-2-26-3-27.89C306.41,92.27,300.87,79,287.3,79c-13.36.16-26.82,20.64-31.29,28.13-5.17-2.5-17.06-8.08-23.59-9.54a147.68,147.68,0,0,0-32.06-3.26c-25.89,0-55,5.62-74.86,14.41a112.57,112.57,0,0,1-7.35-8.81c-5.36-6.87-10.89-14-18.14-17.29C94.22,80,87.88,79.29,82.79,80.83c-5.94,1.79-9.89,6.8-11.72,9.63-7.94,12.3-6.64,22.59-4.15,29.05,3.75,9.74,12.93,17.68,24.86,21.65-4.68,16.89-3.26,29.55-1,41.89A165.75,165.75,0,0,0,78.52,197H86q4.51-5.4,10-10.92l1.09-1.1-.29-1.51c-2.49-13.23-4.11-25.64,1.39-43.41l.9-2.91-2.93-.79c-11.52-3.1-20.42-10.18-23.79-19C69.52,110,70.77,101.74,76,93.64c2.37-3.67,5.46-6.29,8.48-7.2a14.25,14.25,0,0,1,4.07-.56,22.11,22.11,0,0,1,9,2.1c6,2.74,11,9.26,16,15.57a95.76,95.76,0,0,0,9.35,10.85l1.44,1.35,1.79-.84c19.18-8.93,48.33-14.7,74.25-14.7a141.53,141.53,0,0,1,30.78,3.12c7.61,1.7,24.54,10.19,24.72,10.28l2.51,1.26,1.37-2.46C264,104.79,277.16,85,287.53,84.88c9.91,0,14,11,14.16,11.46l.17.39c2.1,4,6.74,15.82,3,22.77-4.8,11-8.77,12.48-20.57,16.9l-4.46,1.67,1.16,2.8c6,14.37,6.23,24.17,5.4,43.09Z" transform="translate(-14.5 -79.02)"/><path class="b" d="M37.89,265.14,14.5,252.64v-4.4L37.89,235v6.67L21.12,250.3v.17l16.77,8Z" transform="translate(-14.5 -79.02)"/><path class="b" d="M61.83,239a15.44,15.44,0,0,1,4.7-1.84,22,22,0,0,1,5-.7q10.86,0,10.87,12.6V267.2H75.23v-4.37h-.1q-2.64,5.1-7.75,5.1a7.59,7.59,0,0,1-5.89-2.43,9.41,9.41,0,0,1-2.21-6.6q0-8.62,8.87-10l7.12-1.11q0-5.23-4.7-5.24a13.8,13.8,0,0,0-8.74,3.26Zm8.55,14.59q-4.09.63-4.1,4.29a3.75,3.75,0,0,0,1,2.71,3.56,3.56,0,0,0,2.69,1,4.64,4.64,0,0,0,3.81-1.9,7.37,7.37,0,0,0,1.5-4.72v-2.14Z" transform="translate(-14.5 -79.02)"/><path class="b" d="M87.75,259.14a13.21,13.21,0,0,0,7.61,2.74c3.12,0,4.68-1,4.68-2.9q0-2.06-3.86-3.44-4.83-1.74-6.63-3.87a8.64,8.64,0,0,1-1.8-5.76A8.46,8.46,0,0,1,90.84,239a12.46,12.46,0,0,1,8.1-2.5,19.49,19.49,0,0,1,6.86,1.22v6.88a11.57,11.57,0,0,0-6.65-2.06,5.05,5.05,0,0,0-2.9.75,2.26,2.26,0,0,0-1.1,2q0,2.07,3.28,3.34a32.07,32.07,0,0,1,5.28,2.47A7.33,7.33,0,0,1,106.4,254a9.16,9.16,0,0,1,.93,4.21,8.69,8.69,0,0,1-3.21,7.2,13.35,13.35,0,0,1-8.58,2.56,19.42,19.42,0,0,1-7.79-1.55Z" transform="translate(-14.5 -79.02)"/><path class="b" d="M119.19,263.59V281h-7.57V237.21h7.57v4.58h.09q3-5.31,8.41-5.31a8.91,8.91,0,0,1,7.73,4q2.79,4,2.79,10.88,0,7.51-3.24,12a10,10,0,0,1-8.47,4.53,7.86,7.86,0,0,1-7.22-4.34Zm-.12-9.65a8.58,8.58,0,0,0,1.5,5.23,4.63,4.63,0,0,0,3.89,2,4.93,4.93,0,0,0,4.41-2.55,13.69,13.69,0,0,0,1.58-7.22q0-8.24-5.55-8.24a5,5,0,0,0-4.2,2.28,9.8,9.8,0,0,0-1.63,5.85Z" transform="translate(-14.5 -79.02)"/><path class="b" d="M157.1,254.21H143.25V248H157.1Z" transform="translate(-14.5 -79.02)"/><path class="b" d="M187.74,237.21l-9.72,30h-8.54l-9.26-30h8.11l4.75,18.87a26.61,26.61,0,0,1,.87,5.18h.12a31.21,31.21,0,0,1,.91-5l4.85-19Z" transform="translate(-14.5 -79.02)"/><path class="b" d="M198.32,263.59v3.61h-7.57V222.81h7.57v19h.09q3-5.31,8.48-5.31a8.87,8.87,0,0,1,7.67,4q2.77,4,2.78,10.93,0,7.45-3.19,12a9.84,9.84,0,0,1-8.45,4.56,7.91,7.91,0,0,1-7.29-4.34Zm-.12-9.35a8,8,0,0,0,1.52,5,4.68,4.68,0,0,0,3.87,2,4.93,4.93,0,0,0,4.41-2.55,13.69,13.69,0,0,0,1.58-7.22,11,11,0,0,0-1.44-6.06A4.64,4.64,0,0,0,204,243.2a5,5,0,0,0-4.18,2.2A9.12,9.12,0,0,0,198.2,251Z" transform="translate(-14.5 -79.02)"/><path class="b" d="M221.54,259.14a13.21,13.21,0,0,0,7.61,2.74c3.13,0,4.69-1,4.69-2.9q0-2.06-3.87-3.44-4.82-1.74-6.63-3.87a8.64,8.64,0,0,1-1.8-5.76,8.46,8.46,0,0,1,3.09-6.93,12.47,12.47,0,0,1,8.11-2.5,19.49,19.49,0,0,1,6.86,1.22v6.88a11.59,11.59,0,0,0-6.65-2.06,5.08,5.08,0,0,0-2.91.75,2.28,2.28,0,0,0-1.1,2q0,2.07,3.28,3.34A32.07,32.07,0,0,1,237.5,251a7.36,7.36,0,0,1,2.7,2.92,9.28,9.28,0,0,1,.92,4.21,8.69,8.69,0,0,1-3.21,7.2,13.32,13.32,0,0,1-8.57,2.56,19.5,19.5,0,0,1-7.8-1.55Z" transform="translate(-14.5 -79.02)"/><path class="b" d="M264.83,266.09c-1.81,1.22-4.38,1.84-7.72,1.84a12.1,12.1,0,0,1-9.58-4.18,15.81,15.81,0,0,1-3.66-10.82q0-7.63,3.94-12.05a13.35,13.35,0,0,1,10.49-4.4q4.43,0,6.56,1.41v7.51a8.57,8.57,0,0,0-5.67-2.2,6.94,6.94,0,0,0-5.56,2.44,9.94,9.94,0,0,0-2.1,6.7,9.81,9.81,0,0,0,2,6.49,6.71,6.71,0,0,0,5.41,2.38,9.58,9.58,0,0,0,5.9-2.23Z" transform="translate(-14.5 -79.02)"/><path class="b" d="M286.23,245.15a5.94,5.94,0,0,0-3.35-.92,4.68,4.68,0,0,0-4.09,2.28,11.3,11.3,0,0,0-1.51,6.26V267.2h-7.56v-30h7.56v5.64h.1q1.88-6.16,6.81-6.16a4.6,4.6,0,0,1,2,.36Z" transform="translate(-14.5 -79.02)"/><path class="b" d="M289.05,227.53a4.48,4.48,0,0,1,1.23-3.27,4.58,4.58,0,0,1,6.34,0,4.93,4.93,0,0,1,0,6.53,4.41,4.41,0,0,1-6.3,0A4.66,4.66,0,0,1,289.05,227.53Zm.57,39.67v-30h7.54v30Z" transform="translate(-14.5 -79.02)"/><path class="b" d="M311,263.59V281h-7.56V237.21H311v4.58h.09q3-5.31,8.41-5.31a8.89,8.89,0,0,1,7.73,4q2.79,4,2.79,10.88,0,7.51-3.23,12a10,10,0,0,1-8.48,4.53,7.86,7.86,0,0,1-7.22-4.34Zm-.12-9.65a8.58,8.58,0,0,0,1.5,5.23,4.63,4.63,0,0,0,3.89,2,5,5,0,0,0,4.42-2.55,13.79,13.79,0,0,0,1.58-7.22q0-8.24-5.55-8.24a5,5,0,0,0-4.21,2.28,9.87,9.87,0,0,0-1.63,5.85Z" transform="translate(-14.5 -79.02)"/><path class="b" d="M350.16,266.84a9.77,9.77,0,0,1-5.18,1.09q-8.24,0-8.24-10V243.74h-4.26v-6.53h4.26v-6.59l7.52-2.5v9.09h5.9v6.53h-5.9v12.64q0,4.8,3.28,4.8a4.89,4.89,0,0,0,2.62-.87Z" transform="translate(-14.5 -79.02)"/><path class="b" d="M391.83,252.31l-23.4,12.5v-6.64l16.82-8v-.14l-16.82-8.62v-6.67l23.4,13.15Z" transform="translate(-14.5 -79.02)"/><path class="b" d="M285.28,187l1.88.79A68.61,68.61,0,0,1,304.49,198H313a66.85,66.85,0,0,0-21.65-14.8c.69-17,.31-27.33-4.8-40.76,11.27-4.22,17.11-6.76,22.6-19.37,5.62-10.35-2-26-3-27.89C305.41,93.27,299.87,80,286.3,80c-13.36.16-26.82,20.64-31.29,28.13-5.17-2.5-17.06-8.08-23.59-9.54a147.68,147.68,0,0,0-32.06-3.26c-25.89,0-55,5.62-74.86,14.41a112.57,112.57,0,0,1-7.35-8.81C111.79,94.08,106.26,87,99,83.66,93.22,81,86.88,80.29,81.79,81.83c-5.94,1.79-9.89,6.8-11.72,9.63-7.94,12.3-6.64,22.59-4.15,29.05,3.75,9.74,12.93,17.68,24.86,21.65-4.68,16.89-3.26,29.55-1,41.89A165.75,165.75,0,0,0,77.52,198H85q4.51-5.4,10-10.92l1.09-1.1-.29-1.51c-2.49-13.23-4.11-25.64,1.39-43.41l.9-2.91-2.93-.79c-11.52-3.1-20.42-10.18-23.79-19C68.52,111,69.77,102.74,75,94.64c2.37-3.67,5.46-6.29,8.48-7.2a14.25,14.25,0,0,1,4.07-.56,22.11,22.11,0,0,1,9,2.1c6,2.74,11,9.26,16,15.57a95.76,95.76,0,0,0,9.35,10.85l1.44,1.35,1.79-.84c19.18-8.93,48.33-14.7,74.25-14.7a141.53,141.53,0,0,1,30.78,3.12c7.61,1.7,24.54,10.19,24.72,10.28l2.51,1.26,1.37-2.46C263,105.79,276.16,86,286.53,85.88c9.91,0,14,11,14.16,11.46l.17.39c2.1,4,6.74,15.82,3,22.77-4.8,11-8.77,12.48-20.57,16.9l-4.46,1.67,1.16,2.8c6,14.37,6.23,24.17,5.4,43.09Z" transform="translate(-14.5 -79.02)"/></svg>