<svg id="mf-asp-js" xmlns="http://www.w3.org/2000/svg" viewBox="0 0 394.92 213.4"><defs><style>.cls-1{fill:#0071bc;}</style></defs><title>mf-asp-js</title><g id="chart"><path class="cls-1" d="M15.87,293.36a42,42,0,0,1,1.5-7.7,43.84,43.84,0,0,0,1.49-7.5c0-2.94-.91-5.15-2.75-6.64a8.37,8.37,0,0,0-5-2.22v-.36a8.25,8.25,0,0,0,5.06-2.26,8,8,0,0,0,2.73-6.52,41,41,0,0,0-1.49-7.09,37.38,37.38,0,0,1-1.5-7.72q0-9.34,10.89-10.84l-1.33-4.88Q10.3,231.81,10.29,243a46.42,46.42,0,0,0,1.51,9.08,49.78,49.78,0,0,1,1.52,8.26q0,4.73-8.24,6.1v5.87q8,1,8,5.87a58.72,58.72,0,0,1-1.38,8.51,54.52,54.52,0,0,0-1.38,9.61q0,9,14.7,12.56l2.11-5Q15.86,300.73,15.87,293.36Z" transform="translate(-5.08 -95.44)"/><path class="cls-1" d="M67.69,238.26h-7.9q0,2.36-8.77,26.09t-8.78,25.19h6.87q0-2.84,4.22-16.58H73q4.29,13.94,4.29,16.58h7.18q0-2.16-8.37-25.56T67.69,238.26ZM54.76,267.8Q63,244.45,63,243.22h.37q0,1.46,8,24.58Z" transform="translate(-5.08 -95.44)"/><path class="cls-1" d="M102.92,259.57a43.81,43.81,0,0,1-7.21-4.18,7,7,0,0,1-2.52-5.47q0-6.78,8.74-6.78a31.77,31.77,0,0,1,11,1.89l.82-6.26q-3-1.22-11.09-1.22-7.14,0-11.06,4.09a14.47,14.47,0,0,0-.07,18.79q2.49,2.69,8.68,5.87a41.44,41.44,0,0,1,7.89,4.85,8.51,8.51,0,0,1,3,6.54q0,7.56-11.57,7.56A29.19,29.19,0,0,1,88.66,283l-1.19,6.19a35.18,35.18,0,0,0,11.37,1.69q17.52,0,17.52-14.57a14.63,14.63,0,0,0-4.25-10.64A35.61,35.61,0,0,0,102.92,259.57Z" transform="translate(-5.08 -95.44)"/><path class="cls-1" d="M151.44,241.47Q147.57,238,141,238q-2.58,0-6.27.12c-2.46.08-4,.12-4.48.12h-4.86q.51,10.78.51,24.34,0,15.75-.51,26.94H132q-.54-12.17-.54-20.76c.61.06,1.33.08,2.17.08q9.94,0,15.82-4.45T155.3,251Q155.3,244.92,151.44,241.47Zm-17.17,22.35c-1.15,0-2.13,0-2.92-.08q0-13.59-.24-20a41.8,41.8,0,0,1,6.57-.59q11.94,0,11.94,10.12Q149.62,263.82,134.27,263.82Z" transform="translate(-5.08 -95.44)"/><polygon class="cls-1" points="153.09 176.85 167.65 176.3 168.06 171.21 153.4 171.81 153.09 176.85"/><path class="cls-1" d="M191.06,268.47a44.59,44.59,0,0,1-.56,7.84,14.35,14.35,0,0,1-1.87,5,7.83,7.83,0,0,1-3.51,3,12.51,12.51,0,0,1-5.12,1,10.53,10.53,0,0,1-5-1.3l-.51,5.75a19.64,19.64,0,0,0,5.92.83,17.77,17.77,0,0,0,7.34-1.38,11.93,11.93,0,0,0,5-4.22,19.49,19.49,0,0,0,2.88-7,49.74,49.74,0,0,0,.92-10.48q0-8.74.12-16t.35-13.27h-6.46Q191.06,250.59,191.06,268.47Z" transform="translate(-5.08 -95.44)"/><path class="cls-1" d="M218,267.33a23.5,23.5,0,0,1-5.72-3.29,4.64,4.64,0,0,1-1.46-3.57c0-2.91,2.17-4.37,6.53-4.37a20.24,20.24,0,0,1,8.5,1.69l1.06-5.67a31.49,31.49,0,0,0-9.39-1.14q-6,0-8.92,3.21a11,11,0,0,0-2.92,7.7,9.73,9.73,0,0,0,3.2,7.33,26.63,26.63,0,0,0,7,4.25,25,25,0,0,1,5.46,3.13,4.68,4.68,0,0,1,1.65,3.76q0,4.89-7.42,4.89a23.39,23.39,0,0,1-9.6-2l-1.05,5.79a40.33,40.33,0,0,0,10.48,1.3q12.69,0,12.69-11.5a9.9,9.9,0,0,0-3.3-7.45A26.71,26.71,0,0,0,218,267.33Z" transform="translate(-5.08 -95.44)"/><path class="cls-1" d="M243,280.72a16.49,16.49,0,0,1-3.4-10.64,16,16,0,0,1,2.86-9.76,9,9,0,0,1,7.68-3.9,18.26,18.26,0,0,1,7.25,1.53l.92-6.18a19.3,19.3,0,0,0-6.6-1,15.8,15.8,0,0,0-13,6.07,22.31,22.31,0,0,0-4.9,14.49A20.59,20.59,0,0,0,238.49,285q4.66,5.64,13.47,5.64a13.21,13.21,0,0,0,7.38-1.82l.35-5.27a24.93,24.93,0,0,1-7.08,1.45Q246.39,285,243,280.72Z" transform="translate(-5.08 -95.44)"/><path class="cls-1" d="M271.51,257.09h-.27a49.64,49.64,0,0,0-.65-5.8l-5.95,1a97.65,97.65,0,0,1,1.59,17.88q0,6.9-.54,19.38h6q-.19-7.2-.2-25.33,1.9-7.05,8.3-7a11.93,11.93,0,0,1,4.93,1.22l1.54-6.26a19,19,0,0,0-6.2-1.3Q275.19,250.82,271.51,257.09Z" transform="translate(-5.08 -95.44)"/><path class="cls-1" d="M295.82,251.37l-6.8,1.07a128.79,128.79,0,0,1,1.19,19.1q0,10.13-.48,18h6.16q-.48-8.55-.48-18Q295.41,259.6,295.82,251.37Z" transform="translate(-5.08 -95.44)"/><path class="cls-1" d="M293.71,236a3.87,3.87,0,0,0-3.2,1.46,5.35,5.35,0,0,0-1.16,3.43,5,5,0,0,0,1,3.09,3.22,3.22,0,0,0,2.71,1.28,3.71,3.71,0,0,0,3.16-1.48,5.58,5.58,0,0,0,1.13-3.48,4.91,4.91,0,0,0-1-3A3.15,3.15,0,0,0,293.71,236Z" transform="translate(-5.08 -95.44)"/><path class="cls-1" d="M321,250.74q-7.38,0-10.68,4.45H310l-.51-3.9-6,1q1.71,10.39,1.7,29.38,0,15.4-.78,25.88h6.4Q310.6,299,310.6,288h.34c1.32,1.73,4.06,2.6,8.24,2.6a13.23,13.23,0,0,0,11.68-6.41,26.52,26.52,0,0,0,4.21-14.9,22.45,22.45,0,0,0-3.78-13.06A11.83,11.83,0,0,0,321,250.74Zm5.23,30.49a9.16,9.16,0,0,1-8.39,4.57,9.85,9.85,0,0,1-7.18-2.68q0-9.5-.54-22.73,2.65-4.29,8.77-4.29a8.39,8.39,0,0,1,7.46,4.16,18.23,18.23,0,0,1,2.65,10A20.88,20.88,0,0,1,326.24,281.23Z" transform="translate(-5.08 -95.44)"/><path class="cls-1" d="M351.47,282.27Q350,279.66,350,271.54q0-7.44.06-13.39c2.48,0,5.75.08,9.84.23l.23-5.86q-6.47.39-9.79.39,0-3.58.57-11.86l-5.34.63c-.22,5.91-.34,9.65-.34,11.23q-2.55,0-5.78-.24l-.21,5.71c2.48-.15,4.35-.23,5.62-.23q-.08,9.69-.07,15.72,0,9.28,2.25,12.89t8.37,3.61a13,13,0,0,0,5.06-1.14l.41-5.12a14.86,14.86,0,0,1-3.91.78Q352.94,284.89,351.47,282.27Z" transform="translate(-5.08 -95.44)"/><path class="cls-1" d="M400,272.05v-5.87q-8-1-8-5.86a58.51,58.51,0,0,1,1.38-8.51,54.49,54.49,0,0,0,1.37-9.61q0-9-14.69-12.57l-2.11,5q11.22,3.08,11.22,10.44a41.62,41.62,0,0,1-1.49,7.7,43.27,43.27,0,0,0-1.5,7.51q0,4.41,2.76,6.63a8.28,8.28,0,0,0,5,2.23v.35A8.25,8.25,0,0,0,389,271.8a8,8,0,0,0-2.74,6.52,40.83,40.83,0,0,0,1.5,7.09,37,37,0,0,1,1.49,7.72q0,9.33-10.88,10.83l1.32,4.88q15.15-2.16,15.14-13.35a46.42,46.42,0,0,0-1.51-9.08,49.11,49.11,0,0,1-1.51-8.25Q391.77,273.43,400,272.05Z" transform="translate(-5.08 -95.44)"/></g><g id="head"><path class="cls-1" d="M288.28,202.41l1.88.8a68.3,68.3,0,0,1,17.33,10.21H316a67,67,0,0,0-21.65-14.8c.69-17,.31-27.33-4.8-40.75,11.27-4.23,17.11-6.77,22.6-19.38,5.62-10.35-2-25.95-3-27.89-.73-1.91-6.27-15.16-19.84-15.16-13.36.16-26.82,20.64-31.29,28.13-5.17-2.5-17.06-8.07-23.59-9.54a147.68,147.68,0,0,0-32.06-3.26c-25.89,0-55,5.63-74.86,14.41a110.74,110.74,0,0,1-7.35-8.81c-5.36-6.86-10.89-14-18.14-17.29-5.79-2.66-12.13-3.37-17.22-1.83-5.94,1.79-9.89,6.8-11.72,9.63-7.94,12.3-6.64,22.59-4.15,29.05,3.75,9.74,12.93,17.69,24.86,21.65-4.68,16.89-3.26,29.55-1,41.89a167.34,167.34,0,0,0-12.26,13.95H88q4.51-5.4,10-10.92l1.09-1.09-.29-1.52c-2.49-13.23-4.11-25.63,1.39-43.41l.9-2.91-2.93-.79c-11.52-3.1-20.42-10.18-23.79-18.95-2.87-7.46-1.62-15.67,3.6-23.77,2.37-3.67,5.46-6.29,8.48-7.2a14.25,14.25,0,0,1,4.07-.56,22.27,22.27,0,0,1,9,2.1c6,2.74,11,9.26,16,15.57a95.76,95.76,0,0,0,9.35,10.85l1.44,1.35,1.79-.84c19.18-8.93,48.33-14.7,74.25-14.7a141.53,141.53,0,0,1,30.78,3.12c7.61,1.71,24.54,10.19,24.72,10.28l2.51,1.26,1.37-2.46c4.22-7.61,17.42-27.41,27.79-27.53,9.91,0,14,11,14.16,11.46l.17.39c2.1,4,6.74,15.83,3,22.77-4.8,11-8.77,12.49-20.57,16.9l-4.46,1.68,1.16,2.79c6,14.38,6.23,24.17,5.4,43.09Z" transform="translate(-5.08 -95.44)"/></g></svg>